<svg xmlns="http://www.w3.org/2000/svg" xmlns:xlink="http://www.w3.org/1999/xlink" width="500" zoomAndPan="magnify" viewBox="0 0 375 374.999991" height="500" preserveAspectRatio="xMidYMid meet" version="1.0"><defs><clipPath id="b2dc3a678f"><path d="M 13 14 L 353 14 L 353 370.953125 L 13 370.953125 Z M 13 14 " clip-rule="nonzero"/></clipPath></defs><g clip-path="url(#b2dc3a678f)"><path fill="#42234c" d="M 162.917969 121.386719 L 161.871094 134.367188 C 158.050781 136.511719 154.332031 137.980469 156.269531 144.3125 C 157.890625 149.601562 159.726562 147.140625 154.332031 153.789062 C 147.367188 162.375 113.699219 176.769531 122.703125 217.863281 C 91.234375 216.398438 51.125 220.429688 26.199219 232.886719 C 10.648438 240.6875 7.925781 247.230469 24.367188 265.394531 C 105.476562 355.332031 218.371094 341.980469 225.492188 345.125 C 233.765625 353.605469 241.203125 359.9375 255.234375 365.277344 C 260.996094 367.476562 270.472656 370.042969 276.546875 368.734375 C 284.347656 367.058594 278.484375 366.535156 286.335938 368.628906 C 292.253906 370.199219 291.625 367.632812 295.132812 365.121094 C 299.53125 370.773438 304.980469 370.878906 313.878906 370.566406 C 320.636719 370.304688 330.007812 369.988281 334.722656 367.421875 C 335.609375 360.460938 329.066406 356.902344 321.890625 350.933594 C 316.550781 346.484375 311.261719 341.929688 301.207031 343.082031 L 298.800781 337.585938 C 302.570312 337.847656 303.667969 338.371094 306.65625 335.648438 L 308.382812 333.816406 C 315.242188 341.878906 329.011719 339.523438 340.007812 338.632812 C 347.917969 337.953125 348.703125 338.527344 350.691406 335.386719 C 353.675781 330.78125 343.257812 323.765625 337.546875 319.054688 C 331.472656 314.027344 325.765625 308.6875 314.195312 310.679688 C 314.089844 303.558594 312.519531 304.867188 307.441406 302.300781 C 310.738281 300.46875 309.535156 301.570312 311.578125 298.21875 C 320.375 307.535156 346.398438 303.296875 351.84375 300.835938 C 352.890625 294.1875 348.964844 292.09375 339.484375 284.609375 C 333.515625 279.898438 329.011719 274.609375 318.175781 276.335938 C 316.917969 273.457031 316.8125 270.683594 313.148438 269.53125 C 305.242188 267.125 310.265625 270.578125 305.292969 264.714844 C 296.445312 254.351562 269.003906 253.148438 253.296875 257.335938 C 248.007812 258.746094 248.113281 257.230469 244.289062 255.605469 C 249.265625 242.207031 249.894531 247.597656 252.722656 226.867188 C 254.238281 215.613281 255.128906 203.835938 255.914062 192.371094 C 262.25 188.445312 272.878906 185.5625 273.929688 169.808594 C 274.660156 158.8125 272.304688 142.585938 271.886719 130.914062 C 284.085938 129.707031 320.792969 125.675781 313.515625 107.144531 C 307.648438 92.175781 275.394531 96.886719 259.058594 96.414062 C 260.417969 94.371094 279.476562 89.453125 273.667969 68.355469 C 270.679688 57.519531 266.753906 57.675781 264.765625 54.691406 C 263.613281 52.964844 262.617188 46.578125 257.382812 38.726562 C 237.378906 8.625 189.207031 4.28125 166.636719 39.144531 C 163.757812 43.648438 161.035156 49.351562 159.515625 55.476562 C 155.953125 69.664062 159.410156 60.765625 148.675781 68.042969 C 141.03125 73.222656 131.921875 85.316406 137.734375 99.710938 C 141.972656 110.234375 152.238281 115.941406 162.761719 121.386719 Z M 162.917969 121.386719 " fill-opacity="1" fill-rule="evenodd"/></g><path fill="#fefefe" d="M 65.210938 277.070312 L 64.6875 283.507812 C 69.242188 285.183594 88.828125 296.699219 94.113281 298.585938 C 104.167969 302.09375 93.171875 290.105469 93.589844 277.070312 C 93.644531 275.761719 93.75 274.035156 93.957031 272.777344 L 95.6875 268.378906 C 98.304688 254.402344 110.714844 242.046875 127.15625 241.996094 C 143.125 241.945312 157.472656 254.140625 158.78125 268.535156 C 164.332031 278.640625 157.003906 301.097656 141.1875 308.21875 C 137.15625 310.050781 137.105469 308.636719 135.796875 312.25 C 139.878906 317.746094 175.800781 321.878906 185.90625 323.085938 C 186.585938 323.1875 189.832031 323.503906 190.304688 323.449219 C 194.335938 322.980469 191.457031 324.394531 193.96875 321.878906 C 194.285156 311.042969 197.058594 298.269531 199.679688 288.324219 C 201.089844 282.984375 202.820312 277.804688 204.441406 273.25 C 206.011719 268.851562 209.3125 262.152344 210.046875 258.382812 C 209.363281 255.136719 210.988281 257.699219 207.636719 256.183594 C 207.375 256.078125 205.070312 255.554688 204.808594 255.449219 C 192.085938 252.570312 173.8125 246.8125 161.765625 242.570312 C 154.28125 239.953125 124.328125 229.222656 118.988281 221.789062 C 111.082031 221.214844 102.074219 221.421875 93.800781 221.84375 C 80.132812 222.574219 81.703125 221.789062 76.835938 233.097656 C 73.011719 241.996094 64.109375 266.234375 65.261719 277.121094 Z M 65.210938 277.070312 " fill-opacity="1" fill-rule="evenodd"/><path fill="#2a3554" d="M 188.472656 34.851562 C 197.113281 33.804688 199.730469 32.96875 208.476562 34.644531 C 204.441406 37.574219 182.398438 39.984375 174.28125 61.078125 C 186.585938 61.078125 210.410156 63.226562 209.835938 80.65625 C 209.523438 90.238281 197.792969 97.671875 186.640625 98.402344 C 184.28125 98.5625 181.875 98.613281 179.519531 98.875 C 179.097656 98.925781 176.953125 99.242188 176.535156 99.398438 L 174.597656 100.234375 C 174.4375 100.289062 174.175781 100.445312 173.96875 100.550781 C 182.871094 113.636719 202.664062 115.46875 216.589844 111.59375 C 227.902344 108.453125 246.59375 95.316406 243.925781 82.125 C 241.671875 71.128906 246.648438 64.535156 244.65625 58.828125 C 235.492188 32.652344 197.949219 25.640625 188.417969 34.851562 Z M 188.472656 34.851562 " fill-opacity="1" fill-rule="evenodd"/><path fill="#e6e8ec" d="M 162.132812 116.621094 C 165.015625 114.109375 163.285156 111.492188 167.109375 112.90625 C 169.152344 118.765625 165.640625 128.347656 166.375 135.203125 L 170.40625 136.355469 C 177.789062 126.621094 168.207031 126.148438 204.078125 132.746094 C 210.726562 133.949219 217.273438 135.363281 223.710938 136.511719 C 228.007812 137.300781 229.679688 137.613281 230.832031 141.015625 C 232.140625 144.730469 230.519531 145.046875 231.253906 149.023438 C 231.304688 149.234375 231.410156 149.601562 231.460938 149.757812 C 231.515625 149.96875 231.617188 150.28125 231.722656 150.492188 C 237.796875 152.269531 244.8125 151.746094 250.886719 150.230469 L 250.785156 129.867188 L 280.316406 125.101562 L 279.53125 112.90625 C 278.953125 108.769531 279.007812 104.003906 277.699219 100.183594 C 273.402344 99.398438 262.460938 99.921875 258.0625 100.96875 C 252.722656 102.226562 244.710938 120.023438 219 122.902344 C 201.71875 124.839844 185.226562 118.820312 173.96875 107.722656 C 172.136719 105.890625 171.246094 104.214844 169.308594 102.433594 C 165.277344 98.664062 166.21875 105 162.867188 99.554688 C 165.015625 94.894531 168.050781 96.886719 172.867188 95.054688 C 169.726562 84.480469 169.097656 78.195312 170.773438 65.582031 C 155.429688 67.308594 143.019531 72.910156 140.507812 87.042969 C 139.09375 95.15625 142.917969 102.328125 146.738281 106.097656 C 151.871094 111.125 156.21875 112.644531 162.027344 116.570312 Z M 162.132812 116.621094 " fill-opacity="1" fill-rule="evenodd"/><path fill="#42234c" d="M 95.6875 268.328125 C 95.109375 281.101562 96.734375 287.539062 103.644531 295.183594 C 122.078125 315.546875 161.664062 306.648438 158.78125 268.484375 C 157.472656 254.089844 143.179688 241.890625 127.15625 241.945312 C 110.714844 241.996094 98.25 254.351562 95.6875 268.328125 Z M 95.6875 268.328125 " fill-opacity="1" fill-rule="evenodd"/><path fill="#fefefe" d="M 199.519531 316.539062 L 198.945312 323.972656 C 205.59375 324.234375 241.566406 325.492188 244.394531 322.195312 C 242.667969 319.105469 236.488281 315.179688 233.609375 310.363281 C 229.261719 302.984375 231.355469 297.382812 237.484375 293.613281 C 248.53125 286.808594 265.707031 287.539062 279.007812 288.21875 C 275.5 286.074219 273.089844 277.542969 244.710938 260.578125 C 239.628906 257.542969 241.621094 259.269531 236.175781 260.054688 C 227.378906 261.3125 222.613281 256.128906 219.105469 251.523438 C 212.507812 261.730469 198.839844 300.679688 199.46875 316.539062 Z M 199.519531 316.539062 " fill-opacity="1" fill-rule="evenodd"/><path fill="#c93063" d="M 122.652344 245.609375 C 108.671875 246.96875 97.097656 262.203125 99.875 278.429688 C 106.210938 314.96875 161.242188 305.179688 155.273438 269.058594 C 152.550781 252.726562 139.25 243.984375 122.652344 245.609375 Z M 122.652344 245.609375 " fill-opacity="1" fill-rule="evenodd"/><path fill="#b8aebd" d="M 65.210938 277.070312 C 63.847656 281.308594 63.746094 289.003906 63.746094 294.242188 C 65.523438 301.046875 112.441406 321.878906 119.457031 324.496094 C 135.535156 330.464844 172.449219 339.523438 191.195312 339.730469 C 193.34375 335.386719 193.183594 327.0625 193.917969 321.878906 C 191.246094 324.550781 190.148438 323.609375 185.855469 323.085938 C 175.75 321.878906 139.828125 317.746094 135.742188 312.25 C 137.050781 308.636719 137.105469 310.050781 141.136719 308.21875 C 156.949219 301.097656 164.332031 278.640625 158.730469 268.535156 C 161.609375 306.699219 122.023438 315.597656 103.59375 295.234375 C 96.679688 287.59375 95.058594 281.152344 95.632812 268.378906 L 93.90625 272.777344 C 93.644531 274.035156 93.539062 275.8125 93.539062 277.070312 C 93.121094 290.050781 104.117188 302.09375 94.0625 298.585938 C 88.773438 296.753906 69.191406 285.234375 64.632812 283.507812 L 65.160156 277.070312 Z M 65.210938 277.070312 " fill-opacity="1" fill-rule="evenodd"/><path fill="#e92226" d="M 17.039062 243.304688 C 17.402344 252.519531 30.703125 266.285156 35.207031 270.839844 C 38.085938 273.773438 55.679688 290.15625 58.824219 290.785156 C 59.03125 278.535156 61.074219 266.078125 64.214844 254.664062 C 65.683594 249.324219 67.460938 243.671875 69.242188 238.960938 C 71.230469 233.828125 73.902344 228.804688 75.367188 223.726562 C 61.074219 225.191406 35.207031 231.371094 22.691406 239.328125 C 20.753906 240.582031 19.339844 242.101562 17.039062 243.304688 Z M 17.039062 243.304688 " fill-opacity="1" fill-rule="evenodd"/><path fill="#fefefe" d="M 227.691406 170.800781 C 224.339844 191.375 221.355469 182.683594 207.375 182.527344 C 208.371094 188.183594 211.511719 185.25 216.328125 196.085938 C 218.683594 201.425781 219.574219 207.8125 221.042969 213.988281 L 223.398438 214.460938 C 228.582031 214.933594 232.351562 213.726562 238.214844 214.773438 C 244.34375 215.875 245.128906 217.652344 249.472656 219.277344 C 251.253906 202.945312 253.246094 180.695312 251.671875 164.3125 C 246.59375 164.835938 243.503906 165.984375 237.117188 165.671875 C 229.523438 165.253906 227.167969 161.796875 227.691406 170.800781 Z M 227.691406 170.800781 " fill-opacity="1" fill-rule="evenodd"/><path fill="#42234c" d="M 124.328125 252.257812 C 95.371094 256.707031 102.703125 301.621094 131.34375 295.707031 C 141.503906 293.613281 150.71875 282.722656 148.832031 270.578125 C 147.15625 259.691406 136.582031 250.320312 124.378906 252.203125 Z M 124.328125 252.257812 " fill-opacity="1" fill-rule="evenodd"/><path fill="#b8aebd" d="M 209.992188 258.277344 C 211.824219 256.078125 214.757812 248.855469 215.648438 245.292969 C 208.578125 242.886719 201.300781 239.484375 193.550781 236.917969 C 183.707031 233.621094 152.550781 222.367188 143.753906 226.082031 C 130.246094 231.734375 131.449219 221.894531 118.933594 221.738281 C 124.277344 229.171875 154.226562 239.851562 161.714844 242.519531 C 173.757812 246.761719 192.03125 252.519531 204.757812 255.398438 C 205.019531 255.449219 207.324219 255.972656 207.585938 256.128906 C 210.9375 257.648438 209.3125 255.082031 209.992188 258.328125 Z M 209.992188 258.277344 " fill-opacity="1" fill-rule="evenodd"/><path fill="#b8aebd" d="M 157.789062 194.566406 L 161.765625 200.011719 C 171.820312 192.210938 176.796875 187.972656 193.707031 193.519531 C 209.679688 198.757812 214.914062 202.578125 217.375 215.769531 C 220.308594 215.980469 221.410156 216.082031 223.449219 214.511719 L 221.09375 214.042969 C 219.574219 207.863281 218.738281 201.476562 216.382812 196.140625 C 211.5625 185.300781 208.421875 188.234375 207.425781 182.582031 C 221.410156 182.738281 224.394531 191.425781 227.742188 170.855469 C 222.769531 175.410156 225.386719 177.921875 214.8125 176.089844 C 209.417969 175.148438 204.234375 174.308594 198.789062 173.316406 C 189.78125 171.585938 174.804688 169.753906 168.261719 166.613281 C 169.414062 171.847656 168.3125 173.523438 173.496094 175.042969 C 177.582031 176.246094 180.773438 175.773438 184.019531 178.027344 C 182.242188 181.375 182.398438 179.074219 177.683594 182.527344 C 171.925781 186.714844 164.070312 196.140625 157.839844 194.671875 Z M 157.789062 194.566406 " fill-opacity="1" fill-rule="evenodd"/><path fill="#22a4ed" d="M 121.1875 257.175781 C 97.9375 266.808594 112.335938 298.742188 133.804688 290.890625 C 141.554688 288.0625 148.101562 278.484375 144.59375 267.855469 C 141.921875 259.792969 131.816406 252.832031 121.238281 257.175781 Z M 121.1875 257.175781 " fill-opacity="1" fill-rule="evenodd"/><path fill="#e6e8ec" d="M 268.21875 329.890625 C 268.535156 308.375 275.078125 302.460938 278.117188 292.199219 C 266.964844 291.097656 231.722656 290.523438 235.859375 305.496094 C 237.953125 312.980469 259.058594 328.789062 268.21875 329.941406 Z M 268.21875 329.890625 " fill-opacity="1" fill-rule="evenodd"/><path fill="#fefefe" d="M 157.789062 194.566406 C 164.019531 196.035156 171.875 186.664062 177.632812 182.421875 C 182.347656 179.019531 182.136719 181.273438 183.96875 177.921875 C 180.722656 175.671875 177.582031 176.140625 173.445312 174.9375 C 168.261719 173.417969 169.359375 171.746094 168.207031 166.507812 C 165.433594 158.238281 168.574219 157.347656 167.214844 150.699219 L 162.34375 150.175781 C 154.332031 163.789062 140.351562 166.613281 133.804688 179.597656 C 140.457031 182.789062 147.105469 184.726562 152.917969 190.117188 C 154.644531 191.742188 155.796875 193.363281 157.789062 194.566406 Z M 157.789062 194.566406 " fill-opacity="1" fill-rule="evenodd"/><path fill="#b8aebd" d="M 244.394531 322.246094 C 241.566406 325.542969 205.59375 324.289062 198.945312 324.027344 L 199.519531 316.59375 C 197.898438 319.523438 196.378906 336.328125 197.320312 340.359375 C 212.402344 342.242188 254.238281 341.355469 264.972656 333.867188 C 262.671875 332.140625 258.21875 330.464844 255.023438 328.6875 C 250.992188 326.488281 247.902344 324.183594 244.394531 322.246094 Z M 244.394531 322.246094 " fill-opacity="1" fill-rule="evenodd"/><path fill="#e6e8ec" d="M 191.40625 167.714844 C 214.601562 170.226562 213.136719 177.921875 217.167969 157.191406 C 218.214844 151.851562 220.046875 145.203125 219.3125 139.863281 C 213.5 137.925781 195.699219 134.417969 188.316406 133.894531 C 182.503906 162.792969 192.191406 144.890625 192.398438 157.242188 C 192.453125 160.90625 191.300781 163.945312 191.40625 167.714844 Z M 191.40625 167.714844 " fill-opacity="1" fill-rule="evenodd"/><path fill="#bcc1ca" d="M 158.3125 203.207031 C 152.8125 195.980469 155.902344 196.765625 147.734375 190.695312 C 144.90625 188.601562 137 183.890625 131.710938 183.679688 C 124.851562 190.640625 121.917969 213.886719 130.875 221.109375 C 142.65625 230.585938 156.53125 208.230469 158.3125 203.207031 Z M 158.3125 203.207031 " fill-opacity="1" fill-rule="evenodd"/><path fill="#bcc1ca" d="M 218.058594 221.214844 C 217.796875 260.683594 237.484375 261.3125 243.609375 247.546875 C 246.488281 241.105469 250.992188 226.292969 246.226562 222.105469 C 239.734375 216.398438 225.335938 217.390625 218.058594 221.265625 Z M 218.058594 221.214844 " fill-opacity="1" fill-rule="evenodd"/><path fill="#e6e8ec" d="M 272.671875 331.667969 C 293.878906 335.859375 291.785156 335.542969 297.070312 317.222656 C 298.539062 312.195312 301.890625 305.234375 298.539062 300.46875 C 296.285156 297.277344 287.855469 293.980469 282.253906 293.769531 C 275.5 301.410156 271.832031 319.367188 272.671875 331.667969 Z M 272.671875 331.667969 " fill-opacity="1" fill-rule="evenodd"/><path fill="#fefefe" d="M 178.574219 94.53125 C 218.632812 94.792969 210.832031 61.394531 175.851562 65.371094 C 170.5625 73.484375 174.859375 88.25 178.574219 94.53125 Z M 178.574219 94.53125 " fill-opacity="1" fill-rule="evenodd"/><path fill="#e6e8ec" d="M 254.921875 133.738281 L 255.863281 149.183594 C 258.113281 151.851562 260.417969 151.378906 260.835938 155.570312 C 261.152344 158.710938 259.683594 160.121094 257.957031 161.796875 C 256.699219 163.003906 257.277344 162.21875 256.070312 163.578125 L 256.542969 186.875 C 275.289062 182.320312 269.582031 151.171875 268.011719 131.855469 L 254.972656 133.738281 Z M 254.921875 133.738281 " fill-opacity="1" fill-rule="evenodd"/><path fill="#e6e8ec" d="M 261.097656 363.078125 C 268.117188 365.328125 279.164062 368.417969 281.625 359.363281 C 283.089844 353.96875 286.546875 342.191406 286.964844 338.109375 C 279.164062 337.691406 269.6875 334.390625 265.234375 339.3125 C 262.566406 342.296875 260.3125 357.6875 261.097656 363.027344 Z M 261.097656 363.078125 " fill-opacity="1" fill-rule="evenodd"/><path fill="#e6e8ec" d="M 297.960938 294.605469 C 299.429688 288.640625 303.667969 277.121094 304.140625 272.253906 C 304.769531 265.449219 294.925781 261.417969 287.648438 260.839844 C 284.714844 264.191406 278.328125 277.90625 280.054688 282.828125 C 282.621094 290.15625 291.050781 291.203125 297.960938 294.605469 Z M 297.960938 294.605469 " fill-opacity="1" fill-rule="evenodd"/><path fill="#e29209" d="M 347.078125 333.660156 C 344.929688 330.257812 317.652344 303.609375 311.578125 318.214844 C 301.679688 341.824219 332.101562 334.546875 347.078125 333.660156 Z M 347.078125 333.660156 " fill-opacity="1" fill-rule="evenodd"/><path fill="#e6e8ec" d="M 285.972656 123.84375 C 319.222656 120.546875 318.699219 99.921875 282.621094 100.078125 C 281.675781 106.78125 284.871094 117.929688 285.972656 123.84375 Z M 285.972656 123.84375 " fill-opacity="1" fill-rule="evenodd"/><path fill="#fefefe" d="M 193.65625 23.023438 C 209.15625 22.078125 219.941406 23.230469 231.460938 30.507812 C 240.257812 36.054688 248.6875 43.488281 252.511719 54.796875 L 259.683594 53.59375 C 252.300781 22.65625 209.363281 11.136719 193.65625 23.023438 Z M 193.65625 23.023438 " fill-opacity="1" fill-rule="evenodd"/><path fill="#e29209" d="M 330.585938 364.492188 C 327.546875 361.507812 303.25 336.433594 297.753906 351.195312 C 294.191406 360.777344 296.546875 365.328125 305.921875 366.535156 C 310.84375 367.160156 327.179688 366.167969 330.585938 364.492188 Z M 330.585938 364.492188 " fill-opacity="1" fill-rule="evenodd"/><path fill="#e6e8ec" d="M 171.613281 163.421875 C 174.28125 164.625 184.28125 166.507812 188.15625 166.875 C 188.996094 163.472656 190.566406 158.027344 190.253906 154.46875 C 186.324219 152.21875 183.550781 153.265625 184.074219 146.722656 C 184.386719 142.636719 185.855469 138.1875 186.167969 133.792969 C 183.445312 132.273438 180.566406 131.644531 177.003906 132.324219 C 174.175781 136.511719 169.882812 158.1875 171.613281 163.367188 Z M 171.613281 163.421875 " fill-opacity="1" fill-rule="evenodd"/><path fill="#e29209" d="M 327.335938 299.527344 L 347.8125 298.269531 C 346.34375 293.980469 313.355469 264.191406 313.09375 291.621094 C 313.042969 297.539062 320.738281 299.945312 327.335938 299.476562 Z M 327.335938 299.527344 " fill-opacity="1" fill-rule="evenodd"/><path fill="#bcc1ca" d="M 188.472656 34.851562 C 182.03125 38.832031 179.832031 36.789062 173.601562 43.332031 C 169.570312 47.519531 167.578125 54.484375 167.160156 61.863281 L 174.28125 61.078125 C 182.398438 39.984375 204.441406 37.625 208.476562 34.644531 C 199.730469 32.96875 197.058594 33.804688 188.472656 34.851562 Z M 188.472656 34.851562 " fill-opacity="1" fill-rule="evenodd"/><path fill="#e6e8ec" d="M 260.261719 63.121094 C 249.632812 69.925781 255.339844 93.222656 264.710938 88.40625 C 276.335938 82.4375 271.046875 56.210938 260.261719 63.121094 Z M 260.261719 63.121094 " fill-opacity="1" fill-rule="evenodd"/><path fill="#d6d1da" d="M 231.148438 345.332031 C 234.132812 349.9375 247.800781 360.148438 257.066406 361.875 C 257.851562 353.605469 258.429688 348.316406 259.683594 340.464844 Z M 231.148438 345.332031 " fill-opacity="1" fill-rule="evenodd"/><path fill="#fefefe" d="M 254.34375 261.050781 C 255.863281 262.9375 267.171875 270.421875 272.777344 275.707031 C 275.289062 278.066406 272.878906 276.753906 276.390625 278.273438 C 277.800781 270.265625 281.257812 265.972656 283.195312 259.636719 C 272.722656 258.382812 264.503906 258.433594 254.398438 261.050781 Z M 254.34375 261.050781 " fill-opacity="1" fill-rule="evenodd"/><path fill="#2e568d" d="M 201.144531 157.609375 C 205.855469 161.535156 206.589844 162.582031 213.554688 160.542969 C 215.910156 156.25 215.859375 153.894531 214.183594 148.660156 C 205.804688 146.40625 199.46875 145.570312 201.144531 157.609375 Z M 201.144531 157.609375 " fill-opacity="1" fill-rule="evenodd"/><path fill="#bcc1ca" d="M 230.78125 57.832031 C 222.195312 61.027344 225.441406 75.945312 234.96875 72.386719 C 242.25 69.664062 239.683594 54.535156 230.78125 57.832031 Z M 230.78125 57.832031 " fill-opacity="1" fill-rule="evenodd"/></svg>